<svg width="20" height="18" viewBox="0 0 20 18" fill="none" xmlns="http://www.w3.org/2000/svg">
<path fill-rule="evenodd" clip-rule="evenodd" d="M11.707 17.218C12.1024 17.392 12.5212 17.4797 12.9439 17.4797C13.1738 17.4797 13.4049 17.4538 13.6339 17.4016C14.2841 17.2531 14.8569 16.9067 15.2905 16.3998C15.724 15.8929 15.9772 15.2733 16.023 14.608C16.0687 13.9426 15.9027 13.2942 15.5429 12.7327L13.3743 9.34982C12.4744 7.94571 10.9416 7.10754 9.27415 7.10754C7.60683 7.10754 6.07393 7.94571 5.17412 9.34982L3.00554 12.7327C2.64574 13.2941 2.47972 13.9424 2.52534 14.6077C2.57097 15.2728 2.82411 15.8925 3.25731 16.3995C3.69096 16.9063 4.26362 17.2528 4.9138 17.4013C5.56398 17.5499 6.23048 17.4866 6.84114 17.2182L6.88097 17.2005C8.41768 16.5381 10.1741 16.5439 11.707 17.218ZM12.179 16.1449C11.2558 15.7388 10.2649 15.5359 9.27369 15.5359C8.28339 15.5359 7.29264 15.7387 6.3701 16.1441L6.34385 16.1557C5.57313 16.4818 4.69392 16.2753 4.14841 15.6377C3.59742 14.9927 3.53471 14.0794 3.99247 13.3653L6.1612 9.9823C6.84434 8.91632 8.00813 8.27988 9.27415 8.27988C10.5402 8.27988 11.704 8.91632 12.3872 9.9823L14.5558 13.3652C15.0137 14.0796 14.9509 14.993 14.3996 15.6377C13.848 16.2825 12.9556 16.4864 12.179 16.1449Z" fill="#F4B207"/>
<path fill-rule="evenodd" clip-rule="evenodd" d="M0.213639 7.58529C0.664994 8.75594 1.7177 9.49492 2.782 9.49492C3.05376 9.49492 3.32628 9.44671 3.58965 9.34523C4.23479 9.09728 4.7249 8.57741 4.9698 7.88131C5.20281 7.21877 5.18358 6.47078 4.91579 5.77498C4.64784 5.07964 4.16048 4.51186 3.54357 4.17647C2.89522 3.82415 2.18324 3.76677 1.53902 4.01488C0.243241 4.51323 -0.351394 6.11449 0.213639 7.58529ZM1.96016 5.10909C2.08544 5.06087 2.21758 5.03691 2.35262 5.03691C2.56106 5.03691 2.77636 5.09398 2.98357 5.20659C3.35619 5.40908 3.65389 5.76079 3.82174 6.19643C3.98958 6.63222 4.00439 7.09243 3.86385 7.49236C3.73492 7.85903 3.48818 8.12835 3.16912 8.25103L3.16851 8.25118C2.47652 8.51806 1.64171 8.03008 1.30785 7.16414C0.974752 6.29744 1.26726 5.37551 1.96016 5.10909Z" fill="#F4B207"/>
<path fill-rule="evenodd" clip-rule="evenodd" d="M4.85992 3.34778C4.85992 5.19333 6.17767 6.69479 7.79739 6.69479C9.41727 6.69479 10.7352 5.19333 10.7352 3.34778C10.7352 1.50177 9.41727 0 7.79739 0C6.17767 0 4.85992 1.50177 4.85992 3.34778ZM6.03226 3.34778C6.03226 2.14828 6.82404 1.17233 7.7974 1.17233C8.77076 1.17233 9.56284 2.14828 9.56284 3.34778C9.56284 4.54697 8.77076 5.52246 7.7974 5.52246C6.82404 5.52246 6.03226 4.54697 6.03226 3.34778Z" fill="#F4B207"/>
<path fill-rule="evenodd" clip-rule="evenodd" d="M12.8711 7.5171C13.1203 7.59996 13.3745 7.63932 13.6277 7.63932C14.809 7.63932 15.9603 6.77949 16.3996 5.45808C16.6526 4.69743 16.6359 3.89314 16.3527 3.19352C16.0564 2.46125 15.5072 1.92964 14.8062 1.69664C14.1053 1.46364 13.3467 1.56068 12.6709 1.97007C12.0253 2.361 11.5306 2.99531 11.2781 3.75596C10.7448 5.36042 11.4594 7.04774 12.871 7.5171H12.8711ZM15.2871 5.08821C14.9576 6.07942 14.0396 6.66993 13.2409 6.40458C12.4427 6.13908 12.0612 5.11674 12.3906 4.12553C12.5556 3.62901 12.8708 3.21946 13.2782 2.97273C13.6554 2.74446 14.0668 2.68617 14.4365 2.809C14.8059 2.93199 15.1006 3.22465 15.266 3.63328C15.4447 4.07487 15.4523 4.59153 15.2871 5.08821Z" fill="#F4B207"/>
<path fill-rule="evenodd" clip-rule="evenodd" d="M15.6586 11.7172C16.0654 12.0186 16.546 12.1626 17.038 12.1626C17.8954 12.1626 18.7874 11.725 19.3837 10.9203C20.3194 9.65439 20.1732 7.95258 19.0576 7.12647L19.0572 7.12601C17.9401 6.30081 16.2694 6.65848 15.3327 7.92374C14.3968 9.18976 14.5432 10.8916 15.6586 11.7172ZM16.2752 8.62091C16.6419 8.12561 17.1776 7.85004 17.6711 7.85004C17.9207 7.85004 18.1597 7.92069 18.3605 8.069C18.9565 8.5109 18.9925 9.47724 18.4413 10.2229C17.8882 10.9694 16.953 11.217 16.3564 10.775C15.7599 10.3336 15.7237 9.36707 16.2752 8.62091Z" fill="#F4B207"/>
</svg>
